# xmcd
#
# Track frame offsets:
#	150
#	25333
#	40060
#	52705
#	69024
#	84860
#	101677
#	121693
#	136605
#	153503
#	173744
#	191651
#
# Disc length: 2922 seconds
#
# Revision: 1
# Processed by: cddbd v1.4PL0 Copyright (c) Steve Scherf et al.
# Submitted via: audiograbber 1.82.02
#
DISCID=830b680c
DTITLE=Something Else - Movin'on
DYEAR=1900
DGENRE=Country
TTITLE0=Ain't going down 'till the sun comes up
TTITLE1=Shoot the rooster
TTITLE2=My riffle, my pony and me
TTITLE3=What a crying shame
TTITLE4=Rosegarden
TTITLE5=Last time uh-huh
TTITLE6=Friends in low places
TTITLE7=Husbands and wives
TTITLE8=Tuff enuff
TTITLE9=Movin' all over
TTITLE10=Mony Mony
TTITLE11=Proud Mary
EXTD=
EXTT0=
EXTT1=
EXTT2=
EXTT3=
EXTT4=
EXTT5=
EXTT6=
EXTT7=
EXTT8=
EXTT9=
EXTT10=
EXTT11=
PLAYORDER=
